<?xml version="1.0" encoding="iso-8859-1"?>
<!-- Generator: Adobe Illustrator 17.0.0, SVG Export Plug-In . SVG Version: 6.00 Build 0)  -->
<!DOCTYPE svg PUBLIC "-//W3C//DTD SVG 1.1//EN" "http://www.w3.org/Graphics/SVG/1.1/DTD/svg11.dtd">
<svg version="1.1" id="Layer_1" xmlns="http://www.w3.org/2000/svg" xmlns:xlink="http://www.w3.org/1999/xlink" x="0px" y="0px"
	 width="1000px" height="1000px" viewBox="0 0 1000 1000" style="enable-background:new 0 0 1000 1000;" xml:space="preserve">
<linearGradient id="SVGID_1_" gradientUnits="userSpaceOnUse" x1="-14.7683" y1="622.9094" x2="654.6243" y2="622.9094" gradientTransform="matrix(1 0 0 -1 194 1105)">
	<stop  offset="0" style="stop-color:#418EEA"/>
	<stop  offset="1" style="stop-color:#1F55D0"/>
</linearGradient>
<path style="fill:url(#SVGID_1_);" d="M678.834,379.256c0,0,219.923,90.064,159.182,312.081c0,0-48.174,152.899-236.679,188.505
	c0,0-274.38,56.552-385.389-117.292c0,0-121.481-175.938,77.497-383.294c0,0,86.573-83.082,129.859-122.179
	c0,0,113.103-86.573,75.402-181.524c0,0,85.176,68.42,86.573,145.219c0,0,4.189,47.475-16.756,94.951
	c0,0-32.116,79.242,25.134,111.707c0,0,31.243,17.28,60.042,0C653.7,427.43,683.023,417.655,678.834,379.256z"/>
<linearGradient id="SVGID_2_" gradientUnits="userSpaceOnUse" x1="109.7691" y1="470.7453" x2="530.0873" y2="470.7453" gradientTransform="matrix(1 0 0 -1 194 1105)">
	<stop  offset="0" style="stop-color:#5CE6FF"/>
	<stop  offset="1" style="stop-color:#2FC8FF"/>
</linearGradient>
<path style="fill:url(#SVGID_2_);" d="M383.602,588.472c0,0-125.332,81.277-61.922,211.323c0,0,47.587,88.82,168.171,88.827
	c0,0,176.067,2.929,224.357-117.393c0,0,54.514-122.837-92.569-227.704c0,0-63.162-41.219-94.458-60.319
	c0,0-79.955-40.281-67.743-103.325c0,0-44.63,52.194-36.535,99.792c0,0,2.95,29.812,21.423,56.692c0,0,29.078,45.198-2.496,71.927
	c0,0-17.282,14.317-37.085,7.003C404.745,615.295,385.494,612.678,383.602,588.472z"/>
</svg>
